<svg xmlns="http://www.w3.org/2000/svg" fill-rule="evenodd" clip-rule="evenodd" image-rendering="optimizeQuality" shape-rendering="geometricPrecision" text-rendering="geometricPrecision" viewBox="0 0 481 511.744"><path fill="#E8DABD" d="M35.854 90.469.001 75.724l38.197-13.402C31.668 38.004 69.135 19.719 96.165 0l-8.042 26.135c14.195-3.993 31.112-5.719 48.922-6.702l-14.409 14.744c11.442 4.503 21.931 10.44 32.167 16.752-14.838 1.915-28.716 4.792-40.543 9.717 16.684 11.82 22.414 37.418 20.438 72.71l-.334 41.549c-.21 12.072 3.217 20.332 14.407 20.439 53.346 25.056 88.764 29.475 111.913 19.77 7.888-37.964 32.245-74.453 72.04-109.569 67.567-49.02 135.6-26.169 146.76 55.287 2.512 24.389 1.71 47.95-1.004 71.035-8.858-42.072-17.961-67.32-27.477-65.004 6.731 42.11-4.138 82.088-24.125 120.959-.877-47.873-7.473-85.65-22.114-109.231 8.823 61.711-.284 120.007-25.465 175.241 4.555-60.058.187-103.483-13.068-130.342-5.864 112.906-35.876 174.56-90.803 208.078-4.251 5.37-8 11.055-15.414 14.406l17.759 47.582 9.021 3.222c13.587 4.851 14.109 14.87.68 14.87h-84.086c-11.566 1.407-13.477-13.417 0-13.066l54.282-6.032-16.203-31.138c-8.067-15.506-4.104-6.55-16.189-13.236-2.541-1.405-4.981-3.28-7.311-5.617-6.363-6.369-2.925-5.026-12.435-7.24l-6.328-1.556c-9.163-2.252-5.807-.685-14.044 2.417-3.3 1.244-6.801 2.014-10.589 2.088l-16.082 56.292 11.726 4.356c6.949 2.94 5.097 12.635-4.356 12.732H80.083c-10.224 0-10.883-13.738 0-13.738l58.636-4.69 12.062-59.978c-6.366-5.135-11.413-12.904-15.746-22.114-6.483-2.965-12.929-6.004-19.309-9.173-91.704-45.578-136.385-185.608-76.522-273.289L26.96 135.91c-6.007 3.558-7.912.072-9.806-6.859-2.932-10.729 3.936-23.739 18.7-38.582zm42.139-22.898c6.914 0 12.518 5.605 12.518 12.519s-5.604 12.519-12.518 12.519c-6.914 0-12.519-5.605-12.519-12.519s5.605-12.519 12.519-12.519z"/><path fill="#C9AB8E" d="m260.014 445.974 17.758 47.582 9.022 3.221c13.587 4.851 14.108 14.872.679 14.872h-84.085c-11.565 1.407-13.476-13.418 0-13.067l54.282-6.033-16.203-31.138c-3.303-6.349-4.589-8.594-5.787-9.495h.002l24.332-5.942zm-85.443-7.705-16.083 56.291 11.729 4.357c6.946 2.939 5.095 12.634-4.357 12.732H80.082c-10.224 0-10.881-13.739 0-13.739l58.637-4.691 12.063-59.976 23.789 5.026z"/><path fill="#D72F35" d="M35.854 90.469 0 75.724l38.198-13.402C31.667 38.004 69.136 19.719 96.165 0l-8.042 26.135c14.195-3.993 31.112-5.718 48.922-6.702l-14.409 14.745c11.442 4.501 21.931 10.438 32.167 16.752-14.839 1.915-28.715 4.791-40.543 9.716-13.228 20.798-25.306 32.457-36.268 31.963-6.913 0-12.519-5.604-12.519-12.519 0-6.914 5.606-12.518 12.519-12.518 6.914 0 12.52 5.604 12.52 12.518 0 6.915-5.606 12.519-12.52 12.519-3.583 10.18-16.634 22.219-38.788 36.058L26.96 135.91c-6.007 3.558-7.913.073-9.806-6.86-2.931-10.729 3.936-23.738 18.7-38.581z"/><circle cx="78.3" cy="79.931" r="5.812"/><circle cx="78.422" cy="79.006" r="11.348"/><circle cx="73.74" cy="72.282" r="3.362" fill="#fff"/><path fill="#D8C499" d="M142.363 229.845c50.236 23.593 84.571 28.889 107.735 21.321a147.652 147.652 0 0 0-3.972 15.048c-24.214 10.154-61.264 5.53-117.067-20.68l13.304-15.689zm121.709-10.271c12.171-27.273 33.055-53.769 62.244-79.528 67.568-49.022 135.601-26.17 146.76 55.286.192 1.866.365 3.728.518 5.584-15.135-78.233-83.846-98.843-152.108-49.318-25.077 22.129-44.291 44.782-57.414 67.976zm182.145-3.98c.255 3.715.377 7.419.373 11.101-.335-3.638-.792-7.29-1.378-10.956a5.296 5.296 0 0 1 1.005-.145zm-45.474 19.371c1.435 19.063 1.135 37.796-.843 56.208 1.003-20.67.01-41.72-3.056-63.165a92.035 92.035 0 0 1 3.899 6.957zm-42.342 44.034c-1.718 20.453-4.336 39.061-7.847 56.003 2.856-18.287 4.849-38.24 5.979-60.025a96.591 96.591 0 0 1 1.868 4.022z"/><path fill="#fff" d="M51.819 149.795c.9.013 1.783.14 2.643.371-9.259.738-16.789 13.438-17.025 29.118-.223 14.743 6.079 27.051 14.508 29.313-.336.027-.674.04-1.013.035-9.718-.147-17.396-13.437-17.151-29.684.245-16.248 8.322-29.3 18.038-29.153zm-6.551 66.363a10.748 10.748 0 0 1 2.648-.323c-8.754 3.103-12.75 17.316-8.931 32.526 3.591 14.301 12.856 24.565 21.583 24.575-.317.112-.641.212-.97.295-9.426 2.366-20.274-8.491-24.232-24.251-3.957-15.761.476-30.455 9.902-32.822z"/></svg>